<!--?xml version="1.0" standalone="no"?-->
              <svg id="sw-js-blob-svg" viewBox="0 0 100 100" xmlns="http://www.w3.org/2000/svg" version="1.1">
                    <defs> 
                        <linearGradient id="sw-gradient" x1="0" x2="1" y1="1" y2="0">
                            <stop id="stop1" stop-color="rgba(0, 0, 0, 1)" offset="0%"></stop>
                            <stop id="stop2" stop-color="rgba(2, 105, 164, 1)" offset="100%"></stop>
                        </linearGradient>
                    </defs>
                <path fill="url(#sw-gradient)" d="M15.6,-17.4C20.8,-17.6,26.2,-13.9,26.4,-9.5C26.6,-5,21.6,0.2,16.5,2.1C11.4,4,6.2,2.7,3.4,7C0.6,11.3,0.3,21.3,-3.5,26.1C-7.4,31,-14.7,30.7,-18.2,26.6C-21.7,22.5,-21.3,14.7,-25.2,7.1C-29.2,-0.5,-37.6,-7.7,-35.6,-10.9C-33.6,-14.1,-21.3,-13.2,-13.7,-12.2C-6,-11.2,-3,-10,1.1,-11.5C5.2,-13,10.3,-17.2,15.6,-17.4Z" width="100%" height="100%" transform="translate(50 50)" stroke-width="0" style="transition: all 0.3s ease 0s;" stroke="url(#sw-gradient)"></path>
              </svg>