<!--?xml version="1.0" standalone="no"?-->
              <svg id="sw-js-blob-svg" viewBox="0 0 100 100" xmlns="http://www.w3.org/2000/svg" version="1.1">
                    <defs> 
                        <linearGradient id="sw-gradient" x1="0" x2="1" y1="1" y2="0">
                            <stop id="stop1" stop-color="rgba(0, 0, 0, 1)" offset="0%"></stop>
                            <stop id="stop2" stop-color="rgba(2, 105, 164, 1)" offset="100%"></stop>
                        </linearGradient>
                    </defs>
                <path fill="url(#sw-gradient)" d="M13,-18.1C20.4,-15.4,32.4,-17.8,34.6,-15.2C36.9,-12.5,29.4,-4.7,26.5,2.6C23.6,9.9,25.4,16.7,23.1,20.9C20.9,25.2,14.6,26.8,10,23.2C5.4,19.5,2.5,10.5,-0.9,7.4C-4.3,4.4,-8.1,7.4,-12.8,7.8C-17.4,8.3,-22.9,6.2,-23.7,3.2C-24.5,0.2,-20.6,-3.8,-19.6,-10.1C-18.5,-16.5,-20.2,-25.3,-17.4,-30.1C-14.6,-34.9,-7.3,-35.7,-2.3,-32.2C2.8,-28.7,5.6,-20.8,13,-18.1Z" width="100%" height="100%" transform="translate(50 50)" stroke-width="0" style="transition: all 0.3s ease 0s;" stroke="url(#sw-gradient)"></path>
              </svg>